<svg width="390" height="844" viewBox="0 0 390 844" fill="none" xmlns="http://www.w3.org/2000/svg">
<g clip-path="url(#clip0_367_148)">
<rect width="390" height="844" fill="#FA6424"/>
<g clip-path="url(#clip1_367_148)">
<path d="M42.8747 19.8145C45.2321 19.8311 47.5563 21.2256 47.5729 25.625C47.5729 29.7754 45.697 32.166 42.7419 32.166C40.4177 32.166 38.8239 30.7217 38.5583 28.7295H40.6999C40.9157 29.6758 41.6462 30.29 42.7419 30.29C44.485 30.29 45.4645 28.7461 45.4811 26.1729H45.3483C44.7341 27.2188 43.5886 27.833 42.2604 27.833C40.1188 27.833 38.4587 26.2061 38.4421 23.9316C38.4421 21.5742 40.2018 19.7979 42.8747 19.8145ZM42.8913 21.5576C41.5466 21.5576 40.5339 22.6035 40.5505 23.8818C40.5505 25.1768 41.5134 26.1895 42.8581 26.1895C44.1862 26.1895 45.2321 25.1104 45.2155 23.8652C45.2155 22.6367 44.236 21.5576 42.8913 21.5576ZM50.286 30.5059C49.5722 30.5059 48.9911 29.9248 48.9911 29.2109C48.9911 28.5137 49.5722 27.9326 50.286 27.9326C50.9667 27.9326 51.5644 28.5137 51.5644 29.2109C51.5644 29.9248 50.9667 30.5059 50.286 30.5059ZM50.286 24.0645C49.5722 24.0645 48.9911 23.4834 48.9911 22.7695C48.9911 22.0723 49.5722 21.4912 50.286 21.4912C50.9667 21.4912 51.5644 22.0723 51.5644 22.7695C51.5644 23.4834 50.9667 24.0645 50.286 24.0645ZM52.9659 29.7588V28.0322L58.1622 19.9805H60.8517V27.9824H62.4288V29.7588H60.8517V32H58.7931V29.7588H52.9659ZM55.1739 27.9824H58.8263V22.4375H58.6935L55.1739 27.8994V27.9824ZM68.4622 19.9805V32H66.2874V22.0889H66.221L63.4153 23.8818V21.9062L66.387 19.9805H68.4622Z" fill="white"/>
<path opacity="0.35" d="M336.5 23C336.5 21.067 338.067 19.5 340 19.5H357C358.933 19.5 360.5 21.067 360.5 23V28C360.5 29.933 358.933 31.5 357 31.5H340C338.067 31.5 336.5 29.933 336.5 28V23Z" stroke="white"/>
<path opacity="0.4" d="M362 24V28.2203C362.849 27.8629 363.401 27.0314 363.401 26.1102C363.401 25.1889 362.849 24.3574 362 24Z" fill="white"/>
<path d="M338 23C338 21.8954 338.895 21 340 21H357C358.105 21 359 21.8954 359 23V28C359 29.1046 358.105 30 357 30H340C338.895 30 338 29.1046 338 28V23Z" fill="white"/>
<path fill-rule="evenodd" clip-rule="evenodd" d="M320.5 22.5875C322.967 22.5876 325.339 23.5551 327.127 25.2898C327.261 25.4237 327.477 25.4221 327.609 25.286L328.896 23.9605C328.963 23.8915 329.001 23.798 329 23.7008C328.999 23.6035 328.961 23.5105 328.893 23.4423C324.201 18.8526 316.799 18.8526 312.107 23.4423C312.039 23.5105 312.001 23.6034 312 23.7007C311.999 23.7979 312.037 23.8914 312.104 23.9605L313.391 25.286C313.523 25.4223 313.739 25.424 313.873 25.2898C315.661 23.5549 318.034 22.5875 320.5 22.5875ZM320.536 26.5894C321.891 26.5893 323.198 27.1035 324.203 28.032C324.338 28.1638 324.552 28.1609 324.685 28.0255L325.97 26.7C326.038 26.6304 326.075 26.5361 326.074 26.4381C326.073 26.3401 326.034 26.2466 325.965 26.1784C322.906 23.2739 318.169 23.2739 315.109 26.1784C315.04 26.2466 315.001 26.3401 315 26.4382C314.999 26.5362 315.037 26.6305 315.105 26.7L316.39 28.0255C316.522 28.1609 316.736 28.1638 316.872 28.032C317.876 27.1041 319.182 26.5899 320.536 26.5894ZM323.15 29.1767C323.152 29.275 323.114 29.3698 323.045 29.4386L320.822 31.7289C320.756 31.7962 320.668 31.834 320.575 31.834C320.482 31.834 320.393 31.7962 320.328 31.7289L318.105 29.4386C318.036 29.3697 317.998 29.2749 318 29.1766C318.002 29.0783 318.044 28.9853 318.115 28.9194C319.535 27.6935 321.615 27.6935 323.035 28.9194C323.106 28.9853 323.148 29.0784 323.15 29.1767Z" fill="white"/>
<path d="M296 23C296 22.4477 296.448 22 297 22H298C298.552 22 299 22.4477 299 23V31C299 31.5523 298.552 32 298 32H297C296.448 32 296 31.5523 296 31V23Z" fill="white"/>
<path d="M301 21C301 20.4477 301.448 20 302 20H303C303.552 20 304 20.4477 304 21V31C304 31.5523 303.552 32 303 32H302C301.448 32 301 31.5523 301 31V21Z" fill="white"/>
<path d="M291 26.5C291 25.9477 291.448 25.5 292 25.5H293C293.552 25.5 294 25.9477 294 26.5V31C294 31.5523 293.552 32 293 32H292C291.448 32 291 31.5523 291 31V26.5Z" fill="white"/>
<path d="M286 29C286 28.4477 286.448 28 287 28H288C288.552 28 289 28.4477 289 29V31C289 31.5523 288.552 32 288 32H287C286.448 32 286 31.5523 286 31V29Z" fill="white"/>
</g>
<circle cx="197.448" cy="798.61" r="8.26978" fill="#FFC107"/>
<circle cx="197.448" cy="798.61" r="3.10117" fill="white"/>
<path fill-rule="evenodd" clip-rule="evenodd" d="M153.6 776C152.609 776 151.876 776.928 152.204 777.863C154.746 785.114 161.65 790.314 169.77 790.314C177.889 790.314 184.794 785.114 187.335 777.863C187.663 776.928 186.93 776 185.939 776C185.253 776 184.657 776.458 184.42 777.102C182.224 783.063 176.493 787.314 169.77 787.314C163.046 787.314 157.315 783.063 155.119 777.102C154.882 776.458 154.286 776 153.6 776Z" fill="#FA6424"/>
<rect x="168.836" y="789.598" width="3" height="11.4513" fill="#FA6424"/>
<g filter="url(#filter0_i_367_148)">
<path d="M221.51 631C243.956 637.235 249.048 659.577 248.788 669.969L217.613 678.542L221.51 631Z" fill="#FAFAFA"/>
</g>
<g filter="url(#filter1_i_367_148)">
<path d="M152.134 669.969L119.4 894.431H279.953L248.778 669.969L201.047 667.5L152.134 669.969Z" fill="#FAFAFA"/>
</g>
<path d="M111.029 725.281L160.574 721.124C161.279 721.064 161.821 721.737 161.614 722.413L147.556 768.261C147.423 768.696 147.002 768.987 146.548 768.959C120.303 767.333 111.424 740.554 110.126 726.338C110.076 725.794 110.485 725.327 111.029 725.281Z" fill="#FAFAFA"/>
<path d="M179.412 631C156.966 637.235 151.874 659.577 152.134 669.969L183.309 678.542L179.412 631Z" fill="#FAFAFA"/>
<path d="M141.113 730.614C141.891 741.455 136.952 743.99 130.668 744.441C124.383 744.892 118.397 741.689 118.354 732.248C118.097 728.655 123.19 728.268 129.474 727.817C135.759 727.366 140.855 727.021 141.113 730.614Z" fill="#373236"/>
<path d="M173.067 643.301C160.257 647.112 159.004 661.759 159.048 668.036C159.052 668.577 159.496 669 160.036 669H175.12C175.702 669 176.161 668.504 176.117 667.923L174.289 644.164C174.242 643.552 173.655 643.126 173.067 643.301Z" fill="#FA6424"/>
<path d="M228.179 643.301C240.989 647.112 242.242 661.759 242.198 668.036C242.195 668.577 241.751 669 241.21 669H226.127C225.544 669 225.085 668.504 225.13 667.923L226.957 644.164C227.004 643.552 227.591 643.126 228.179 643.301Z" fill="#FA6424"/>
<rect x="162.007" y="699.698" width="5.42353" height="13.5588" rx="2.71177" fill="#373236"/>
<rect x="180.085" y="699.698" width="6.32746" height="13.5588" rx="3.16373" fill="#373236"/>
<circle cx="192.134" cy="802.193" r="8.08728" fill="#FFC107"/>
<circle cx="192.134" cy="802.193" r="2.57064" fill="#FDFDFD"/>
<rect x="163.17" y="789.784" width="3" height="11.4513" fill="#FA6424"/>
<path fill-rule="evenodd" clip-rule="evenodd" d="M186.895 810.191C186.049 809.642 185.301 808.953 184.686 808.157C181.944 810.874 179.479 812.18 177.384 812.611C175.218 813.057 173.314 812.596 171.695 811.574C168.356 809.464 166.22 804.934 166.169 801.148L163.17 801.189C163.231 805.813 165.757 811.371 170.094 814.11C172.313 815.512 175.001 816.165 177.989 815.55C180.839 814.963 183.834 813.251 186.895 810.191Z" fill="#FA6424"/>
<path d="M234.624 732.886C234.452 732.076 233.655 731.558 232.845 731.73C232.035 731.902 231.517 732.699 231.689 733.509L234.624 732.886ZM164.979 791.351C176.919 786.313 195.773 779.132 210.842 769.66C218.382 764.921 225.091 759.54 229.538 753.465C234.01 747.355 236.235 740.476 234.624 732.886L231.689 733.509C233.081 740.067 231.218 746.09 227.117 751.693C222.991 757.33 216.642 762.471 209.245 767.12C194.442 776.424 175.912 783.481 163.812 788.587L164.979 791.351Z" fill="#FA6424"/>
<path d="M137.219 770.095C136.897 769.332 136.017 768.975 135.253 769.298C134.49 769.62 134.133 770.5 134.456 771.263L137.219 770.095ZM165.438 788.024C160.773 786.315 154.543 783.903 149.025 780.825C143.432 777.706 138.904 774.081 137.219 770.095L134.456 771.263C136.562 776.246 141.9 780.286 147.564 783.445C153.302 786.645 159.719 789.124 164.407 790.841L165.438 788.024Z" fill="#FA6424"/>
<path d="M113.635 446.814V458.328H112.246V452.299H108.977C108.669 454.224 107.052 455.533 104.986 455.533C102.648 455.533 100.926 453.934 100.926 451.666C100.926 449.398 102.648 447.816 104.986 447.816C107.096 447.816 108.739 449.161 108.994 451.156H112.246V446.814H113.635ZM114.074 460.93V462.09H103.598V457.15H104.986V460.93H114.074ZM104.986 449.029C103.422 449.047 102.244 450.119 102.244 451.666C102.244 453.213 103.422 454.32 104.986 454.338C106.516 454.32 107.693 453.213 107.693 451.666C107.693 450.119 106.516 449.047 104.986 449.029ZM128.876 446.797V462.424H127.557V446.797H128.876ZM125.712 447.184V461.615H124.411V453.564H121.774V452.439H124.411V447.184H125.712ZM120.104 451.262C120.104 453.969 121.317 456.658 123.479 457.906L122.635 458.926C121.097 458.003 120.008 456.315 119.471 454.32C118.9 456.474 117.766 458.311 116.202 459.295L115.323 458.258C117.503 456.957 118.768 454.109 118.768 451.262V449.785H115.762V448.643H122.969V449.785H120.104V451.262ZM138.352 448.01C140.479 448.027 142.008 449.847 142.236 452.773H145.734V446.797H147.106V462.459H145.734V453.916H142.254C142.087 456.975 140.531 458.891 138.352 458.891C136.049 458.891 134.432 456.781 134.432 453.459C134.432 450.137 136.049 448.027 138.352 448.01ZM138.352 449.24C136.805 449.258 135.75 450.91 135.75 453.459C135.75 456.008 136.805 457.66 138.352 457.66C139.881 457.66 140.953 456.008 140.953 453.459C140.953 450.91 139.881 449.258 138.352 449.24ZM161.872 446.797V462.459H160.483V446.797H161.872ZM157.442 448.291V449.451H151.395V457.379C154.436 457.379 156.44 457.282 158.778 456.869L158.919 458.029C156.493 458.469 154.436 458.557 151.272 458.574H150.007V448.291H157.442ZM169.326 450.998C169.326 453.828 171.136 456.676 173.404 457.713L172.578 458.838C170.802 457.924 169.335 456.052 168.64 453.828C167.946 456.166 166.478 458.17 164.703 459.119L163.806 458.012C166.091 456.887 167.919 453.881 167.919 450.998V448.15H169.326V450.998ZM176.779 446.797V462.459H175.408V453.266H171.699V452.141H175.408V446.797H176.779ZM192.916 454.689V455.814H178.66V454.689H192.916ZM191.282 451.824V452.967H180.471V447.482H191.141V448.607H181.842V451.824H191.282ZM191.405 460.912V462.072H180.506V457.502H181.877V460.912H191.405ZM209.722 446.691V451.279H211.937V452.896H209.722V458.381H207.771V446.691H209.722ZM210.355 460.666V462.248H199.545V457.203H201.496V460.666H210.355ZM199.668 447.816V450.242H203.377V447.816H205.31V455.797H197.734V447.816H199.668ZM199.668 454.25H203.377V451.754H199.668V454.25ZM225.332 446.674V462.582H223.381V456.061H220.481V454.461H223.381V451.736H220.534V450.137H223.381V446.674H225.332ZM219.637 448.045V453.986H214.539V457.361C216.64 457.344 218.468 457.256 220.604 456.939L220.762 458.539C218.319 458.926 216.297 458.979 213.836 458.979H212.606V452.457H217.721V449.609H212.553V448.045H219.637ZM241.364 454.285V455.85H226.862V454.285H233.155V452.773H228.638V447.395H239.607V448.924H230.589V451.227H239.694V452.773H235.071V454.285H241.364ZM234.087 456.764C237.515 456.764 239.571 457.801 239.589 459.664C239.571 461.51 237.515 462.564 234.087 462.564C230.624 462.564 228.55 461.51 228.55 459.664C228.55 457.801 230.624 456.764 234.087 456.764ZM234.087 458.258C231.767 458.258 230.519 458.75 230.536 459.664C230.519 460.578 231.767 461.053 234.087 461.053C236.355 461.053 237.62 460.578 237.638 459.664C237.62 458.75 236.355 458.258 234.087 458.258ZM256.183 453.125V454.672H249.891V455.867H254.373V459.77H245.338V460.93H254.812V462.424H243.422V458.363H252.457V457.344H243.404V455.867H247.939V454.672H241.699V453.125H256.183ZM254.32 447.166V452.123H243.527V447.166H254.32ZM245.443 448.695V450.594H252.369V448.695H245.443ZM267.136 448.502C267.127 449.996 266.987 451.429 266.626 452.773H268.577V447.061H270.423V461.809H268.577V454.355H266.046C265.159 456.263 263.664 457.959 261.195 459.348L260.087 458.012C262.249 456.781 263.568 455.349 264.341 453.705L260.368 454.109L260.14 452.422L264.904 452.158C265.062 451.499 265.167 450.805 265.22 450.084H260.913V448.502H267.136ZM273.798 446.674V462.564H271.935V446.674H273.798ZM279.266 447.834C281.419 447.834 283.01 449.627 283.291 452.527H286.314V446.674H288.248V462.582H286.314V454.109H283.309C283.098 457.177 281.48 459.066 279.266 459.066C276.875 459.066 275.188 456.904 275.188 453.441C275.188 450.014 276.875 447.834 279.266 447.834ZM279.266 449.592C277.947 449.592 277.051 451.016 277.068 453.441C277.051 455.885 277.947 457.309 279.266 457.309C280.584 457.309 281.463 455.885 281.48 453.441C281.463 451.016 280.584 449.592 279.266 449.592Z" fill="white"/>
<path d="M109.356 424V387.47H124.462C127.096 387.47 129.402 387.999 131.378 389.056C133.371 390.113 134.905 391.578 135.98 393.45C137.072 395.305 137.618 397.402 137.618 399.742C137.618 402.273 137.098 404.5 136.058 406.424C135.018 408.348 133.51 409.847 131.534 410.922C129.575 411.979 127.252 412.508 124.566 412.508H118.716V424H109.356ZM123.812 404.058C124.644 404.058 125.398 403.876 126.074 403.512C126.75 403.148 127.278 402.645 127.66 402.004C128.058 401.345 128.258 400.617 128.258 399.82C128.258 399.057 128.058 398.381 127.66 397.792C127.278 397.203 126.75 396.743 126.074 396.414C125.415 396.085 124.67 395.92 123.838 395.92H118.716V404.058H123.812ZM146.481 413.054C146.966 414.441 147.772 415.515 148.899 416.278C150.043 417.023 151.36 417.396 152.851 417.396C153.977 417.396 154.974 417.223 155.841 416.876C156.725 416.512 157.548 416.001 158.311 415.342L162.315 421.114C161.015 422.275 159.515 423.177 157.817 423.818C156.135 424.442 154.289 424.754 152.279 424.754C149.523 424.754 147.044 424.104 144.843 422.804C142.641 421.504 140.917 419.753 139.669 417.552C138.438 415.351 137.823 412.959 137.823 410.376C137.823 407.741 138.412 405.315 139.591 403.096C140.769 400.877 142.399 399.118 144.479 397.818C146.576 396.518 148.942 395.868 151.577 395.868C154.471 395.868 156.959 396.475 159.039 397.688C161.119 398.884 162.696 400.557 163.771 402.706C164.845 404.855 165.383 407.325 165.383 410.116C165.383 411.069 165.305 412.049 165.149 413.054H146.481ZM151.941 402.914C150.537 402.914 149.341 403.295 148.353 404.058C147.382 404.821 146.706 405.921 146.325 407.36H157.349C156.985 405.904 156.335 404.803 155.399 404.058C154.48 403.295 153.327 402.914 151.941 402.914ZM178.436 424H169.648V404.474H166.32V396.44H169.622V390.044L178.462 387.86V396.44H183.792V404.474H178.436V424ZM207.178 396.44H213.678V424H206.918L205.956 421.504C203.98 423.601 201.45 424.65 198.364 424.65C195.834 424.65 193.502 424.009 191.37 422.726C189.256 421.426 187.574 419.675 186.326 417.474C185.078 415.255 184.454 412.837 184.454 410.22C184.454 407.62 185.078 405.219 186.326 403.018C187.574 400.817 189.264 399.075 191.396 397.792C193.528 396.509 195.851 395.868 198.364 395.868C201.467 395.868 204.032 396.951 206.06 399.118L207.178 396.44ZM199.196 416.46C200.34 416.46 201.372 416.2 202.29 415.68C203.226 415.143 203.963 414.406 204.5 413.47C205.038 412.534 205.306 411.477 205.306 410.298C205.306 409.119 205.038 408.053 204.5 407.1C203.98 406.147 203.252 405.401 202.316 404.864C201.398 404.327 200.375 404.058 199.248 404.058C198.104 404.058 197.073 404.327 196.154 404.864C195.236 405.401 194.508 406.147 193.97 407.1C193.45 408.053 193.19 409.119 193.19 410.298C193.19 411.477 193.45 412.534 193.97 413.47C194.49 414.406 195.201 415.143 196.102 415.68C197.021 416.2 198.052 416.46 199.196 416.46ZM227.641 424H218.905V385H227.641V424ZM262.438 424H252.038L244.966 413.938L241.69 417.526V424H232.902V385H241.69V406.476L249.984 396.44H261.086L250.764 407.646L262.438 424Z" fill="white"/>
<path fill-rule="evenodd" clip-rule="evenodd" d="M277.125 401.981C282.357 401.658 286.5 397.313 286.5 392C286.5 386.477 282.023 382 276.5 382C270.977 382 266.5 386.477 266.5 392V402H276.5H277.125V401.981Z" fill="white"/>
</g>
<defs>
<filter id="filter0_i_367_148" x="217.613" y="631" width="31.1843" height="47.5422" filterUnits="userSpaceOnUse" color-interpolation-filters="sRGB">
<feFlood flood-opacity="0" result="BackgroundImageFix"/>
<feBlend mode="normal" in="SourceGraphic" in2="BackgroundImageFix" result="shape"/>
<feColorMatrix in="SourceAlpha" type="matrix" values="0 0 0 0 0 0 0 0 0 0 0 0 0 0 0 0 0 0 127 0" result="hardAlpha"/>
<feOffset dx="-8"/>
<feComposite in2="hardAlpha" operator="arithmetic" k2="-1" k3="1"/>
<feColorMatrix type="matrix" values="0 0 0 0 0.980392 0 0 0 0 0.392157 0 0 0 0 0.141176 0 0 0 0.25 0"/>
<feBlend mode="normal" in2="shape" result="effect1_innerShadow_367_148"/>
</filter>
<filter id="filter1_i_367_148" x="119.4" y="667.5" width="160.553" height="226.931" filterUnits="userSpaceOnUse" color-interpolation-filters="sRGB">
<feFlood flood-opacity="0" result="BackgroundImageFix"/>
<feBlend mode="normal" in="SourceGraphic" in2="BackgroundImageFix" result="shape"/>
<feColorMatrix in="SourceAlpha" type="matrix" values="0 0 0 0 0 0 0 0 0 0 0 0 0 0 0 0 0 0 127 0" result="hardAlpha"/>
<feOffset dx="-8" dy="-1"/>
<feComposite in2="hardAlpha" operator="arithmetic" k2="-1" k3="1"/>
<feColorMatrix type="matrix" values="0 0 0 0 0.980392 0 0 0 0 0.392157 0 0 0 0 0.141176 0 0 0 0.25 0"/>
<feBlend mode="normal" in2="shape" result="effect1_innerShadow_367_148"/>
</filter>
<clipPath id="clip0_367_148">
<rect width="390" height="844" fill="white"/>
</clipPath>
<clipPath id="clip1_367_148">
<rect width="390" height="47" fill="white"/>
</clipPath>
</defs>
</svg>
