<svg width="190" height="81" viewBox="0 0 190 81" fill="none" xmlns="http://www.w3.org/2000/svg">
<path d="M13.6347 64.8145V76.3281H12.2461V70.2988H8.97652C8.66891 72.2236 7.05172 73.5332 4.98629 73.5332C2.6484 73.5332 0.925743 71.9336 0.925743 69.666C0.925743 67.3984 2.6484 65.8164 4.98629 65.8164C7.09566 65.8164 8.73922 67.1611 8.9941 69.1562H12.2461V64.8145H13.6347ZM14.0742 78.9297V80.0898H3.59762V75.1504H4.98629V78.9297H14.0742ZM4.98629 67.0293C3.42184 67.0469 2.2441 68.1191 2.2441 69.666C2.2441 71.2129 3.42184 72.3203 4.98629 72.3379C6.51559 72.3203 7.69332 71.2129 7.69332 69.666C7.69332 68.1191 6.51559 67.0469 4.98629 67.0293ZM28.8757 64.7969V80.4238H27.5573V64.7969H28.8757ZM25.7116 65.1836V79.6152H24.4108V71.5645H21.7741V70.4395H24.4108V65.1836H25.7116ZM20.1042 69.2617C20.1042 71.9688 21.3171 74.6582 23.4792 75.9062L22.6354 76.9258C21.0973 76.0029 20.0075 74.3154 19.4714 72.3203C18.9001 74.4736 17.7663 76.3105 16.2018 77.2949L15.3229 76.2578C17.5026 74.957 18.7682 72.1094 18.7682 69.2617V67.7852H15.7624V66.6426H22.9694V67.7852H20.1042V69.2617ZM38.3517 66.0098C40.4786 66.0273 42.0079 67.8467 42.2364 70.7734H45.7345V64.7969H47.1056V80.459H45.7345V71.916H42.254C42.087 74.9746 40.5314 76.8906 38.3517 76.8906C36.0489 76.8906 34.4318 74.7812 34.4318 71.459C34.4318 68.1367 36.0489 66.0273 38.3517 66.0098ZM38.3517 67.2402C36.8048 67.2578 35.7501 68.9102 35.7501 71.459C35.7501 74.0078 36.8048 75.6602 38.3517 75.6602C39.881 75.6602 40.9532 74.0078 40.9532 71.459C40.9532 68.9102 39.881 67.2578 38.3517 67.2402ZM61.8719 64.7969V80.459H60.4832V64.7969H61.8719ZM57.4422 66.291V67.4512H51.3954V75.3789C54.4364 75.3789 56.4403 75.2822 58.7782 74.8691L58.9188 76.0293C56.493 76.4688 54.4364 76.5566 51.2723 76.5742H50.0067V66.291H57.4422ZM69.3257 68.998C69.3257 71.8281 71.1363 74.6758 73.4039 75.7129L72.5777 76.8379C70.8023 75.9238 69.3345 74.0518 68.6402 71.8281C67.9459 74.166 66.4781 76.1699 64.7027 77.1191L63.8062 76.0117C66.0914 74.8867 67.9195 71.8809 67.9195 68.998V66.1504H69.3257V68.998ZM76.7789 64.7969V80.459H75.4078V71.2656H71.6988V70.1406H75.4078V64.7969H76.7789ZM92.9163 72.6895V73.8145H78.6604V72.6895H92.9163ZM91.2815 69.8242V70.9668H80.471V65.4824H91.1409V66.6074H81.8421V69.8242H91.2815ZM91.4046 78.9121V80.0723H80.5061V75.502H81.8772V78.9121H91.4046ZM109.722 64.6914V69.2793H111.937V70.8965H109.722V76.3809H107.771V64.6914H109.722ZM110.355 78.666V80.248H99.5446V75.2031H101.496V78.666H110.355ZM99.6677 65.8164V68.2422H103.377V65.8164H105.31V73.7969H97.7341V65.8164H99.6677ZM99.6677 72.25H103.377V69.7539H99.6677V72.25ZM125.332 64.6738V80.582H123.381V74.0605H120.481V72.4609H123.381V69.7363H120.534V68.1367H123.381V64.6738H125.332ZM119.637 66.0449V71.9863H114.539V75.3613C116.64 75.3438 118.468 75.2559 120.604 74.9395L120.762 76.5391C118.319 76.9258 116.297 76.9785 113.836 76.9785H112.606V70.457H117.721V67.6094H112.553V66.0449H119.637ZM141.364 72.2852V73.8496H126.862V72.2852H133.155V70.7734H128.638V65.3945H139.607V66.9238H130.589V69.2266H139.694V70.7734H135.071V72.2852H141.364ZM134.087 74.7637C137.515 74.7637 139.571 75.8008 139.589 77.6641C139.571 79.5098 137.515 80.5645 134.087 80.5645C130.624 80.5645 128.55 79.5098 128.55 77.6641C128.55 75.8008 130.624 74.7637 134.087 74.7637ZM134.087 76.2578C131.767 76.2578 130.519 76.75 130.536 77.6641C130.519 78.5781 131.767 79.0527 134.087 79.0527C136.355 79.0527 137.62 78.5781 137.638 77.6641C137.62 76.75 136.355 76.2578 134.087 76.2578ZM156.183 71.125V72.6719H149.891V73.8672H154.373V77.7695H145.338V78.9297H154.812V80.4238H143.422V76.3633H152.457V75.3438H143.404V73.8672H147.939V72.6719H141.699V71.125H156.183ZM154.32 65.166V70.123H143.527V65.166H154.32ZM145.443 66.6953V68.5938H152.369V66.6953H145.443ZM167.136 66.502C167.127 67.9961 166.987 69.4287 166.626 70.7734H168.577V65.0605H170.423V79.8086H168.577V72.3555H166.046C165.159 74.2627 163.664 75.959 161.195 77.3477L160.087 76.0117C162.249 74.7812 163.568 73.3486 164.341 71.7051L160.368 72.1094L160.14 70.4219L164.904 70.1582C165.062 69.499 165.167 68.8047 165.22 68.084H160.913V66.502H167.136ZM173.798 64.6738V80.5645H171.935V64.6738H173.798ZM179.266 65.834C181.419 65.834 183.01 67.627 183.291 70.5273H186.314V64.6738H188.248V80.582H186.314V72.1094H183.309C183.098 75.1768 181.48 77.0664 179.266 77.0664C176.875 77.0664 175.188 74.9043 175.188 71.4414C175.188 68.0137 176.875 65.834 179.266 65.834ZM179.266 67.5918C177.947 67.5918 177.051 69.0156 177.068 71.4414C177.051 73.8848 177.947 75.3086 179.266 75.3086C180.584 75.3086 181.463 73.8848 181.48 71.4414C181.463 69.0156 180.584 67.5918 179.266 67.5918Z" fill="#373236"/>
<path d="M8.85562 42V5.47H23.9616C26.5963 5.47 28.9016 5.99866 30.8776 7.056C32.871 8.11333 34.405 9.578 35.4796 11.45C36.5716 13.3047 37.1176 15.402 37.1176 17.742C37.1176 20.2727 36.5976 22.5 35.5576 24.424C34.5176 26.348 33.0096 27.8473 31.0336 28.922C29.075 29.9793 26.7523 30.508 24.0656 30.508H18.2156V42H8.85562ZM23.3116 22.058C24.1436 22.058 24.8976 21.876 25.5736 21.512C26.2496 21.148 26.7783 20.6453 27.1596 20.004C27.5583 19.3453 27.7576 18.6173 27.7576 17.82C27.7576 17.0573 27.5583 16.3813 27.1596 15.792C26.7783 15.2027 26.2496 14.7433 25.5736 14.414C24.915 14.0847 24.1696 13.92 23.3376 13.92H18.2156V22.058H23.3116ZM45.9808 31.054C46.4661 32.4407 47.2721 33.5153 48.3988 34.278C49.5428 35.0233 50.8601 35.396 52.3508 35.396C53.4774 35.396 54.4741 35.2227 55.3408 34.876C56.2248 34.512 57.0481 34.0007 57.8108 33.342L61.8148 39.114C60.5148 40.2753 59.0154 41.1767 57.3168 41.818C55.6354 42.442 53.7894 42.754 51.7788 42.754C49.0228 42.754 46.5441 42.104 44.3428 40.804C42.1414 39.504 40.4168 37.7533 39.1688 35.552C37.9381 33.3507 37.3228 30.9587 37.3228 28.376C37.3228 25.7413 37.9121 23.3147 39.0908 21.096C40.2694 18.8773 41.8988 17.118 43.9788 15.818C46.0761 14.518 48.4421 13.868 51.0768 13.868C53.9714 13.868 56.4588 14.4747 58.5388 15.688C60.6188 16.884 62.1961 18.5567 63.2708 20.706C64.3454 22.8553 64.8828 25.3253 64.8828 28.116C64.8828 29.0693 64.8048 30.0487 64.6488 31.054H45.9808ZM51.4408 20.914C50.0368 20.914 48.8408 21.2953 47.8528 22.058C46.8821 22.8207 46.2061 23.9213 45.8248 25.36H56.8488C56.4848 23.904 55.8348 22.8033 54.8988 22.058C53.9801 21.2953 52.8274 20.914 51.4408 20.914ZM77.9364 42H69.1484V22.474H65.8204V14.44H69.1224V8.044L77.9624 5.86V14.44H83.2924V22.474H77.9364V42ZM106.678 14.44H113.178V42H106.418L105.456 39.504C103.48 41.6013 100.95 42.65 97.8642 42.65C95.3335 42.65 93.0022 42.0087 90.8702 40.726C88.7555 39.426 87.0742 37.6753 85.8262 35.474C84.5782 33.2553 83.9542 30.8373 83.9542 28.22C83.9542 25.62 84.5782 23.2193 85.8262 21.018C87.0742 18.8167 88.7642 17.0747 90.8962 15.792C93.0282 14.5093 95.3509 13.868 97.8642 13.868C100.967 13.868 103.532 14.9513 105.56 17.118L106.678 14.44ZM98.6962 34.46C99.8402 34.46 100.872 34.2 101.79 33.68C102.726 33.1427 103.463 32.406 104 31.47C104.538 30.534 104.806 29.4767 104.806 28.298C104.806 27.1193 104.538 26.0533 104 25.1C103.48 24.1467 102.752 23.4013 101.816 22.864C100.898 22.3267 99.8749 22.058 98.7482 22.058C97.6042 22.058 96.5729 22.3267 95.6542 22.864C94.7355 23.4013 94.0075 24.1467 93.4702 25.1C92.9502 26.0533 92.6902 27.1193 92.6902 28.298C92.6902 29.4767 92.9502 30.534 93.4702 31.47C93.9902 32.406 94.7009 33.1427 95.6022 33.68C96.5209 34.2 97.5522 34.46 98.6962 34.46ZM127.141 42H118.405V3H127.141V42ZM161.938 42H151.538L144.466 31.938L141.19 35.526V42H132.402V3H141.19V24.476L149.484 14.44H160.586L150.264 25.646L161.938 42Z" fill="#FA6424"/>
<path fill-rule="evenodd" clip-rule="evenodd" d="M176.625 19.9808C181.857 19.6582 186 15.3129 186 10C186 4.47715 181.523 0 176 0C170.477 0 166 4.47715 166 10V20H176H176.625V19.9808Z" fill="#FA6424"/>
</svg>
